Coordinates
version=1
nRows=19
nColumns=36
inDegrees=yes

Units are S.I. units (second, meters, Newtons, ...)
If the header above contains a line with 'inDegrees', this indicates whether rotational values are in degrees (yes) or radians (no).

endheader
time	pelvis_tilt	pelvis_list	pelvis_rotation	pelvis_tx	pelvis_ty	pelvis_tz	hip_flexion_r	hip_adduction_r	hip_rotation_r	knee_angle_r	knee_angle_r_beta	ankle_angle_r	subtalar_angle_r	mtp_angle_r	hip_flexion_l	hip_adduction_l	hip_rotation_l	knee_angle_l	knee_angle_l_beta	ankle_angle_l	subtalar_angle_l	mtp_angle_l	lumbar_extension	lumbar_bending	lumbar_rotation	arm_flex_r	arm_add_r	arm_rot_r	elbow_flex_r	pro_sup_r	arm_flex_l	arm_add_l	arm_rot_l	elbow_flex_l	pro_sup_l
      1.33333330	    -26.50417174	      4.08366767	    -27.52748274	      0.84432387	      0.66202712	     -0.35229761	     76.95277257	     17.01443343	     -7.37878990	     87.26180632	      1.52300583	     40.04185739	     -0.52879773	     -7.49995133	     96.74982773	    -15.37523633	     11.70334668	     36.81963901	      0.64262393	      2.27255523	     19.19153623	     -7.49995133	     -7.99564566	     12.68893959	      6.95343014	     66.82637819	      7.38434621	     79.49808870	    136.34356165	    103.42727849	     78.42372900	     15.12205676	     62.40149480	    126.31380258	    102.98325481
      1.35000000	    -25.81298347	      3.64432362	    -27.31617655	      0.84381035	      0.66977754	     -0.35153183	     75.26555991	     17.10394711	     -7.10211621	     86.12922433	      1.50323855	     39.71407295	     -0.79296437	     -7.49995228	     95.16447072	    -15.37520974	     11.59945157	     35.68720951	      0.62285931	      2.02909329	     18.63108241	     -7.49995228	     -8.36786969	     12.41690907	      6.28560881	     66.86857496	      7.54847781	     79.51505876	    135.88405288	    103.97420666	     79.03414352	     14.91747385	     62.01908036	    125.77616244	    103.48164080
      1.36666670	    -24.97525705	      3.18398629	    -27.01650753	      0.84461678	      0.68047781	     -0.35092507	     73.34974863	     17.11957591	     -6.72635007	     84.90508130	      1.48187322	     39.41349814	     -1.00828038	     -7.49996291	     93.43493148	    -15.31444517	     11.47482953	     34.70516267	      0.60571936	      1.88665751	     18.22690254	     -7.49996291	     -9.06459488	     12.14098310	      6.68383232	     66.75639355	      6.97424433	     78.90521648	    135.11826101	    108.02879929	     78.25931421	     15.10769594	     61.81300833	    125.34395969	    107.77240883
      1.38333330	    -24.02067761	      2.81868119	    -26.78199196	      0.84454109	      0.68917601	     -0.35103559	     71.27823790	     17.09421361	     -6.23804567	     83.46288075	      1.45670207	     38.81057425	     -1.33522247	     -7.49996385	     91.51358317	    -15.26982984	     11.22242293	     33.55866768	      0.58570924	      1.73334092	     17.72431148	     -7.49996385	     -9.67307352	     11.74841870	      7.03742608	     66.37934996	      5.94932178	     78.76563986	    134.30551985	    108.07660513	     77.33997354	     15.10243687	     60.48528154	    125.50682192	    107.62481194
      1.40000000	    -23.18969149	      2.49807173	    -26.48380049	      0.84502228	      0.69393807	     -0.35130838	     69.60957843	     17.03186191	     -5.88386833	     82.36069819	      1.43746536	     38.30906258	     -1.65646367	     -7.49997039	     89.94721634	    -15.12950755	     11.00930521	     32.68473596	      0.57045626	      1.73319862	     17.48449406	     -7.49997039	    -10.01895640	     11.35632769	      7.19194381	     66.54793161	      5.58356204	     78.28944318	    134.75596355	    107.74501950	     77.49795256	     15.99797119	     60.01017907	    126.36740687	    107.43426448
      1.41666670	    -22.53948189	      2.15878466	    -26.11966626	      0.84950763	      0.69909054	     -0.34653704	     67.89376762	     17.09721089	     -5.57668533	     81.19951945	      1.41719897	     38.13521723	     -1.79785188	     -7.49997067	     88.66256411	    -15.05966782	     10.91612602	     31.97269357	      0.55802877	      1.60201602	     16.99593289	     -7.49997067	     -9.43141719	     11.07601637	      6.54286078	     65.76318726	      5.15561429	     78.84931219	    135.18777429	    107.74629710	     77.62883547	     15.94656746	     60.36788799	    127.56105159	    107.38566474
      1.43333330	    -21.70879943	      1.84955674	    -25.75188354	      0.85429651	      0.70485720	     -0.34280006	     66.05560144	     17.25652251	     -5.05883369	     80.21983557	      1.40010026	     37.94569565	     -2.24521524	     -7.49997099	     87.16187668	    -14.84873989	     10.86870778	     31.45780538	      0.54904228	      1.49645301	     16.29527993	     -7.49997099	     -9.01888496	     10.58670508	      6.41892849	     65.43285368	      4.75097167	     78.98637407	    135.59286489	    107.74605030	     77.62747487	     15.13046194	     60.89297792	    128.14504898	    107.36751077
      1.45000000	    -20.64985424	      1.44123559	    -25.18809406	      0.86250609	      0.71141639	     -0.33419148	     63.66945048	     17.44653242	     -4.44123608	     79.13872420	      1.38123130	     37.96761513	     -2.88685935	     -7.49997176	     85.34149787	    -14.57069960	     10.87047439	     31.07786556	      0.54241108	      1.64717525	     15.19164731	     -7.49997176	     -8.73520835	      9.83532522	      6.01770488	     64.75699160	      5.88807312	     78.11597510	    135.25048247	    107.63595778	     77.20641626	     14.89159719	     61.67169648	    129.16056132	    107.24297946
      1.46666670	    -19.80096935	      1.05601881	    -24.41788045	      0.86718205	      0.72234047	     -0.32967889	     61.26603906	     17.61094762	     -3.75644081	     77.63655430	      1.35501349	     37.74941750	     -3.90561359	     -7.49997275	     83.52759414	    -14.16527280	     10.93356610	     30.70074310	      0.53582905	      1.86106655	     14.23836751	     -7.49997275	     -8.56527853	      9.24101157	      5.54424761	     63.16011592	      6.33407501	     77.87800902	    134.55639405	    107.43708755	     76.37974129	     14.17270559	     61.81183922	    130.78096443	    106.85253852
      1.48333330	    -18.41628596	      0.68003813	    -23.71418711	      0.87054451	      0.73501599	     -0.32535678	     58.01397382	     17.72836266	     -2.76075969	     75.50473184	      1.31780617	     37.05916352	     -5.13225400	     -7.49997381	     80.56502053	    -13.70687603	     10.38435321	     29.83473293	      0.52071432	      1.49087289	     13.51874952	     -7.49997381	     -8.89136739	      8.83588671	      4.83257942	     61.97741207	      6.53141690	     79.01996125	    133.73045911	    107.30112167	     75.86969724	     13.79811272	     61.65287895	    131.39151928	    106.39387144
      1.50000000	    -17.46600758	      0.80178698	    -22.95548521	      0.87041087	      0.73917870	     -0.32506226	     55.73205699	     17.46565344	     -1.81683412	     73.76087033	      1.28737005	     36.43853612	     -6.20327577	     -7.49997449	     78.43856838	    -12.86741573	     10.09093378	     29.79869092	      0.52008527	      1.08702906	     12.65939955	     -7.49997449	     -8.56997018	      7.88964608	      4.12213538	     62.13232889	      6.75693361	     78.84636947	    133.43321679	    107.34231259	     77.12412399	     14.90362509	     63.09800203	    132.51534055	    106.19468503
      1.51666670	    -16.76797312	      0.79167700	    -21.88673943	      0.87445093	      0.75222076	     -0.32198225	     53.43422489	     17.02480540	     -1.17470344	     71.66509945	      1.25079194	     36.05693532	     -6.78170614	     -7.49997487	     76.39928101	    -11.91407032	      9.83415806	     29.67203672	      0.51787474	      0.80259201	     12.10785516	     -7.49997487	     -8.41586623	      7.13811455	      3.63483522	     61.60159125	      6.60804116	     79.19599411	    132.65467218	    107.21463133	     76.31487252	     15.36017062	     64.57543467	    131.73349850	    106.02755228
      1.53333330	    -14.92802774	      0.75538528	    -21.15989707	      0.87409138	      0.76441434	     -0.32229176	     50.10349671	     16.55710055	     -0.01580212	     69.33481127	      1.21012074	     34.50834645	     -8.32447583	     -7.49997552	     73.19418231	    -11.08649719	      9.05068953	     29.01272490	      0.50636757	      0.09271040	     10.92345876	     -7.49997552	     -9.75499540	      6.26526479	      3.07917736	     61.78477059	      6.88403668	     78.58461826	    132.63835406	    107.13289152	     76.40897971	     13.50435725	     63.86089006	    131.65516119	    105.68677101
      1.55000000	    -13.64266704	      0.44779736	    -20.58005565	      0.86761099	      0.77325658	     -0.31926566	     47.62130762	     16.41430864	      0.54254637	     67.20227501	      1.17290096	     33.05845637	     -9.16742821	     -7.49997628	     70.84032738	    -10.67683458	      8.89062102	     28.56977088	      0.49863657	     -0.19501139	     10.30975624	     -7.49997628	    -11.23814522	      5.50274546	      2.10643875	     63.21793035	      8.04869137	     78.08885307	    131.90594400	    106.90800393	     79.24374877	     11.93047477	     62.47949689	    132.32992427	    104.92095837
      1.56666670	    -12.34443871	      0.07136964	    -20.14269367	      0.86720916	      0.77882614	     -0.31992918	     44.90326290	     16.48207357	      1.27007550	     64.81588515	      1.13125060	     31.74508440	     -9.88700070	     -7.49997891	     68.71024681	    -10.43666208	      8.61437235	     28.15041937	      0.49131750	     -0.56630226	      9.30729555	     -7.49997891	    -12.12076172	      5.27280268	      0.88007826	     65.69935439	      9.25309072	     77.23788203	    130.89377224	    104.73336132	     81.92141787	     10.70782089	     59.08914823	    131.70660257	    102.04807417
      1.58333330	    -11.58520033	      0.03334362	    -19.44673111	      0.87104325	      0.78766133	     -0.31500950	     42.67770104	     16.40174214	      2.02692113	     62.48683776	      1.09060106	     30.48438054	    -11.09347609	     -7.49997971	     67.23239790	     -9.87755467	      8.46861103	     28.48461202	      0.49715027	     -0.36486847	      8.23059141	     -7.49997971	    -11.99698499	      4.48481816	      0.71604573	     65.76768289	      9.30137224	     77.09424195	    131.28944236	    104.77761336	     82.46085512	     12.20769747	     60.45664900	    130.18718701	    101.59549448
      1.60000000	    -10.56219823	     -0.23041499	    -18.87346340	      0.87139070	      0.80120661	     -0.31435206	     39.76897667	     16.42818247	      3.03648476	     59.54418828	      1.03924214	     29.00228153	    -12.10377840	     -7.49998369	     64.98828402	     -9.45867234	      8.30133817	     27.85420721	      0.48614763	     -0.69206096	      7.29538230	     -7.49998369	    -12.45025206	      3.46687167	      0.78605288	     64.96767876	      8.93907475	     75.46402829	    131.58547294	    103.59871367	     82.07907083	     13.03654273	     62.69009091	    127.60612643	     99.10051406
      1.61666670	     -9.33955821	     -0.55897912	    -18.38891494	      0.87095208	      0.81007398	     -0.31437214	     36.85053652	     16.31915206	      3.78828516	     56.70985924	      0.98977376	     26.90556483	    -13.39433630	     -7.49998412	     62.70984848	     -9.22133666	      7.89152092	     27.17734541	      0.47433416	     -0.67191294	      6.82218392	     -7.49998412	    -13.06855059	      3.10580701	      1.67502597	     65.01293257	      8.81261899	     73.19380328	    130.89190477	    103.48415888	     81.44081760	     13.42179856	     61.86938176	    127.65029656	     98.98022493
      1.63333330	     -8.47159592	     -0.78377083	    -17.77961609	      0.87127117	      0.81741034	     -0.31410243	     34.58953413	     16.04281603	      4.05949813	     54.06766041	      0.94365869	     25.03128831	    -14.10613048	     -7.49998496	     60.76932826	     -8.85574239	      7.45617220	     26.07314107	      0.45506216	     -0.77119616	      6.50331844	     -7.49998496	    -13.10980574	      2.78183182	      1.94661246	     64.84670399	      8.25923454	     71.92973780	    130.90707463	    102.88857066	     81.50917675	     13.58952745	     61.74126365	    130.43945839	     98.25410035
